:SAMPLES-PER-SECOND 30
:FRAME-RANGE 1-1770
:FULLY-SPECIFIED
:DEGREES
720
root  16.8568 38.3573 -56.923 -2.53271 41.5508 -0.336792
RightUpLeg  -18.4175 -11.0468 12.1069
RightLeg  21.6419 -15.1977 -6.59602
RightFoot  -6.60933 0.271209 -7.62606
RightToes  6.35937e-011 1.2921e-014 -6.02303e-014
Spine  1.31408 -4.98568 0.819907
Spine1  3.64297 -6.86044 7.76284
HEad  13.4368 -32.4081 -3.6295
LeftShoulder1  2.09513 -2.01217 -31.9539
LeftArm  49.7971 -14.949 -53.8755
LeftForeArm  2.3967 -23.6251 -4.93712
LeftHand  -0.135894 -3.77661 1.98332
RightShoulder  6.30824 7.72048 49.2462
RightArm  5.50996 -0.0133738 12.346
RightForeArm  23.1165 -5.81196 16.8958
RightHand  0.262811 3.96471 2.99155
LeftUpLeg  15.6747 20.6037 3.00065
LeftLeg  26.4761 -11.7887 -5.99163
LeftFoot  -13.5369 -0.107101 -9.79375
LeftToes  3.18074e-010 1.39432e-010 -7.71186e-011
721
root  17.6393 38.3321 -56.2203 -2.52441 42.0205 -1.34988
RightUpLeg  -18.2428 -11.8942 12.4515
RightLeg  23.4287 -15.236 -6.89326
RightFoot  -8.92601 0.08036 -6.65728
RightToes  6.35937e-011 1.2921e-014 -6.02303e-014
Spine  1.03733 -5.22491 2.11055
Spine1  3.62562 -6.96343 8.44181
HEad  12.7329 -34.0167 -3.08896
LeftShoulder1  2.10038 -2.08134 -31.5771
LeftArm  45.4076 -14.3839 -51.609
LeftForeArm  0.843617 -17.3709 -10.4044
LeftHand  -0.0671415 -3.07223 1.1525
RightShoulder  6.34177 7.78301 49.2334
RightArm  2.25189 0.728833 12.6706
RightForeArm  22.9191 -6.49069 16.4269
RightHand  0.261974 3.76565 3.06024
LeftUpLeg  10.0414 19.926 5.01373
LeftLeg  37.5309 -12.3789 -9.67984
LeftFoot  -6.02449 0.837746 -17.159
LeftToes  3.18074e-010 1.39432e-010 -7.71186e-011
722
root  18.3151 38.1707 -55.6083 -3.10565 42.0466 -2.94225
RightUpLeg  -18.3157 -12.1441 13.3134
RightLeg  25.7284 -14.6228 -7.15586
RightFoot  -11.1646 -0.0664187 -5.78135
RightToes  6.35937e-011 1.2921e-014 -6.02303e-014
Spine  1.53526 -5.23425 4.35746
Spine1  3.41776 -6.55367 8.56245
HEad  11.5629 -36.4123 -1.96762
LeftShoulder1  2.06643 -2.00806 -31.4598
LeftArm  33.479 -14.372 -48.5397
LeftForeArm  5.31282 -8.81999 -16.6698
LeftHand  0.0170244 -1.92088 -0.105124
RightShoulder  6.5629 8.16911 49.2627
RightArm  1.55987 0.3502 13.1955
RightForeArm  21.9173 -3.86406 16.3033
RightHand  0.251345 3.76431 2.92614
LeftUpLeg  3.27794 17.8511 6.85764
LeftLeg  48.6933 -11.6826 -13.4947
LeftFoot  2.9639 2.99373 -23.6968
LeftToes  3.18074e-010 1.39432e-010 -7.71186e-011
723
root  18.944 37.9608 -55.0546 -3.95557 41.5515 -4.25485
RightUpLeg  -17.9803 -10.9051 13.8254
RightLeg  28.3822 -15.4995 -8.0281
RightFoot  -13.4538 -0.178297 -4.7391
RightToes  6.35937e-011 1.2921e-014 -6.02303e-014
Spine  2.63915 -5.20984 6.56938
Spine1  3.49007 -5.97289 8.41757
HEad  9.81305 -38.8852 -0.586817
LeftShoulder1  2.00795 -1.85305 -31.4512
LeftArm  23.984 -13.057 -44.6433
LeftForeArm  6.08409 -2.43594 -18.9078
LeftHand  0.0211094 -0.588268 -0.350383
RightShoulder  6.86206 8.57818 49.7605
RightArm  3.96662 0.881943 13.8006
RightForeArm  20.7924 -0.817829 16.319
RightHand  0.233798 4.12836 2.57548
LeftUpLeg  -2.7862 15.8526 8.23413
LeftLeg  57.5015 -9.59782 -15.3346
LeftFoot  8.22782 4.04197 -23.4396
LeftToes  3.18074e-010 1.39432e-010 -7.71186e-011
724
root  19.6756 38.0624 -54.3959 -3.83783 40.3936 -3.79082
RightUpLeg  -15.893 -8.99133 12.7648
RightLeg  28.6822 -16.4395 -8.05325
RightFoot  -14.745 -0.215685 -3.90451
RightToes  6.35937e-011 1.2921e-014 -6.02303e-014
Spine  3.12546 -4.90097 7.3899
Spine1  3.8599 -5.25281 7.36645
HEad  7.74751 -41.1129 0.795847
LeftShoulder1  1.94895 -1.69689 -31.4403
LeftArm  15.6886 -10.2321 -40.0748
LeftForeArm  5.77986 0.87528 -19.2098
LeftHand  0.077524 0.385407 -1.86664
RightShoulder  7.38197 9.36798 50.2382
RightArm  9.58112 1.3739 14.7504
RightForeArm  17.7831 3.31843 16.0711
RightHand  0.188298 4.1131 2.02544
LeftUpLeg  -7.86676 13.9525 8.05962
LeftLeg  62.486 -5.94781 -11.6795
LeftFoot  5.84542 2.97206 -19.7336
LeftToes  3.18074e-010 1.39432e-010 -7.71186e-011
725
root  20.4462 38.2441 -53.6944 -3.40295 38.2265 -2.79831
RightUpLeg  -13.242 -6.90572 11.362
RightLeg  27.9962 -16.3201 -7.24903
RightFoot  -15.781 -0.225223 -3.05788
RightToes  6.35937e-011 1.2921e-014 -6.02303e-014
Spine  3.18884 -4.2722 8.21612
Spine1  4.40315 -4.15391 5.58837
HEad  6.43549 -42.77 1.43861
LeftShoulder1  1.88762 -1.54618 -31.3421
LeftArm  11.616 -6.26016 -35.7117
LeftForeArm  4.10829 1.75649 -19.1815
LeftHand  0.0735306 1.18271 -2.23941
RightShoulder  7.86163 10.1117 50.5724
RightArm  15.6492 1.87752 16.0876
RightForeArm  14.6148 7.40418 15.101
RightHand  0.175294 4.37249 1.79999
LeftUpLeg  -11.8439 12.5848 7.58
LeftLeg  63.6617 -2.92123 -5.81344
LeftFoot  5.19327 2.14592 -14.9173
LeftToes  3.18074e-010 1.39432e-010 -7.71186e-011
726
root  21.2293 38.4906 -52.9638 -2.53223 35.5382 -1.42955
RightUpLeg  -10.5403 -5.16779 9.77047
RightLeg  26.496 -15.3508 -6.14061
RightFoot  -16.4107 -0.213853 -2.32438
RightToes  6.35937e-011 1.2921e-014 -6.02303e-014
Spine  3.21051 -3.46626 8.54547
Spine1  4.26431 -2.99762 3.82321
HEad  6.26475 -43.5949 0.83162
LeftShoulder1  1.79508 -1.30821 -31.2642
LeftArm  13.2553 -1.40744 -31.7579
LeftForeArm  1.13502 0.716847 -19.3014
LeftHand  0.0789826 1.378 -2.54302
RightShoulder  8.17339 10.6495 50.5774
RightArm  26.1176 1.80908 17.5784
RightForeArm  6.08441 13.0404 12.7451
RightHand  0.172541 4.36295 1.76965
LeftUpLeg  -15.1149 11.4532 6.81625
LeftLeg  61.7757 -0.583541 -0.604412
LeftFoot  3.6492 1.31618 -10.1532
LeftToes  3.18074e-010 1.39432e-010 -7.71186e-011
727
root  21.9847 38.7646 -52.2187 -1.50256 32.8374 0.0440063
RightUpLeg  -7.74267 -4.05282 8.04034
RightLeg  24.1656 -14.069 -4.90227
RightFoot  -16.7735 -0.207172 -1.97625
RightToes  6.35937e-011 1.2921e-014 -6.02303e-014
Spine  3.2844 -2.67209 8.08675
Spine1  3.74706 -2.08823 2.50024
HEad  6.13937 -44.0079 0.149069
LeftShoulder1  1.67387 -0.999255 -31.1272
LeftArm  13.1245 4.1133 -28.2814
LeftForeArm  2.08841 -0.694754 -18.9581
LeftHand  0.123933 0.789925 -3.27624
RightShoulder  8.34807 10.9624 50.5396
RightArm  35.0029 1.63431 18.8559
RightForeArm  -1.50018 17.781 9.37784
RightHand  0.191139 4.43831 1.97055
LeftUpLeg  -17.6563 10.3489 5.99953
LeftLeg  57.0612 1.06389 2.27553
LeftFoot  0.901716 0.71871 -6.7485
LeftToes  3.18074e-010 1.39432e-010 -7.71186e-011
728
root  22.6974 39.034 -51.469 -0.540955 30.2658 1.34912
RightUpLeg  -4.9476 -3.49344 6.40675
RightLeg  21.357 -12.1696 -3.70874
RightFoot  -16.8944 -0.205281 -1.87726
RightToes  6.35937e-011 1.2921e-014 -6.02303e-014
Spine  3.26171 -2.00397 7.22994
Spine1  3.28849 -1.4322 1.37385
HEad  5.61725 -43.8488 -0.145319
LeftShoulder1  1.5299 -0.645509 -30.8195
LeftArm  12.1764 10.0319 -25.5071
LeftForeArm  3.41285 -2.63306 -18.2883
LeftHand  0.181693 0.150149 -4.08089
RightShoulder  8.42132 11.0901 50.5362
RightArm  40.8216 1.49251 19.7504
RightForeArm  -5.72686 21.527 6.22968
RightHand  0.207745 4.65547 2.10563
LeftUpLeg  -19.1439 9.43679 5.45964
LeftLeg  49.3082 1.91348 2.80711
LeftFoot  -0.126736 0.578321 -5.88095
LeftToes  3.18074e-010 1.39432e-010 -7.71186e-011
729
root  23.3644 39.2846 -50.7447 0.307068 27.7889 2.33102
RightUpLeg  -2.25668 -3.40638 4.90452
RightLeg  18.1751 -9.80717 -2.55716
RightFoot  -16.6618 -0.195587 -1.78466
RightToes  6.35937e-011 1.2921e-014 -6.02303e-014
Spine  3.18731 -1.41165 6.31361
Spine1  2.94344 -0.894319 0.279345
HEad  4.65515 -43.4774 0.160196
LeftShoulder1  1.39848 -0.321891 -30.4958
LeftArm  11.5108 15.6878 -23.4474
LeftForeArm  3.25518 -4.74116 -17.5028
LeftHand  0.238923 -0.197592 -4.9796
RightShoulder  8.45473 11.1316 50.5918
RightArm  41.016 1.46575 20.1245
RightForeArm  -4.21713 24.1472 5.37823
RightHand  0.209025 4.68102 2.11338
LeftUpLeg  -19.6031 9.05477 5.13785
LeftLeg  38.7517 1.81803 1.92559
LeftFoot  -0.22815 0.648266 -6.64609
LeftToes  3.18074e-010 1.39432e-010 -7.71186e-011
730
root  24.006 39.5086 -50.0154 1.07574 25.6315 3.12231
RightUpLeg  0.444867 -3.61161 3.42932
RightLeg  14.7401 -7.19385 -1.57089
RightFoot  -16.3024 -0.180369 -1.61888
RightToes  6.35937e-011 1.2921e-014 -6.02303e-014
Spine  2.83597 -0.92852 5.16375
Spine1  3.00234 -0.464955 -0.701801
HEad  3.53148 -43.0673 0.744545
LeftShoulder1  1.28068 -0.0267576 -30.2076
LeftArm  11.1121 20.4028 -22.0046
LeftForeArm  2.26532 -6.08109 -16.9508
LeftHand  0.276806 -0.316084 -5.63621
RightShoulder  8.44149 11.1062 50.6005
RightArm  39.6141 1.39797 20.4022
RightForeArm  -1.15422 25.6773 5.56879
RightHand  0.216683 4.75899 2.17966
LeftUpLeg  -18.9672 9.40844 4.7679
LeftLeg  26.0858 0.240213 0.454634
LeftFoot  0.120153 0.792631 -7.89846
LeftToes  3.18074e-010 1.39432e-010 -7.71186e-011
